<svg width="66" height="19" viewBox="0 0 66 19" fill="none" xmlns="http://www.w3.org/2000/svg">
<path d="M-2.53767e-05 18.564L3.92597 -5.84126e-06H9.04797L9.87998 13.884H9.98398L16.952 -5.84126e-06H22.334L18.408 18.564H14.846L16.692 9.77599C17.056 8.03399 17.654 5.71999 18.07 4.18599H17.966L10.738 18.564H7.17598L6.39597 4.18599H6.29197C6.16197 5.30399 5.74597 7.79999 5.30397 9.93199L3.48397 18.564H-2.53767e-05ZM26.7509 18.824C24.9309 18.824 23.6569 18.59 22.4869 17.992V14.846C23.7609 15.574 25.1129 15.99 26.5429 15.99C27.7389 15.99 28.8569 15.496 28.8569 14.456C28.8569 13.754 28.4669 13.364 26.7249 12.376C24.9569 11.388 23.9689 10.426 23.9689 8.63199C23.9689 5.69399 25.9969 4.10799 29.3769 4.10799C31.0149 4.10799 32.5229 4.44599 33.9789 5.30399L32.7309 8.03399C31.7169 7.43599 30.5729 6.968 29.4549 6.968C28.6229 6.968 27.8429 7.35799 27.8429 8.164C27.8429 8.84 28.3109 9.22999 29.7669 9.984C31.4829 10.868 32.7309 11.96 32.7309 13.884C32.7309 17.134 30.3909 18.824 26.7509 18.824ZM39.508 18.824C37.064 18.824 35.894 17.238 35.894 14.742C35.894 14.118 35.998 13.052 36.206 12.038L37.818 4.368H41.64L39.898 12.662C39.768 13.234 39.69 13.754 39.69 14.17C39.69 15.236 40.158 15.73 41.068 15.73C42.81 15.73 44.032 13.26 44.682 10.244L45.93 4.368H49.752L46.736 18.564H43.824L44.084 15.938H43.954C42.862 17.628 41.484 18.824 39.508 18.824ZM55.1994 18.824C52.7554 18.824 51.5854 17.238 51.5854 14.742C51.5854 14.118 51.6894 13.052 51.8974 12.038L53.5094 4.368H57.3314L55.5894 12.662C55.4594 13.234 55.3814 13.754 55.3814 14.17C55.3814 15.236 55.8494 15.73 56.7594 15.73C58.5014 15.73 59.7234 13.26 60.3734 10.244L61.6214 4.368H65.4434L62.4274 18.564H59.5154L59.7754 15.938H59.6454C58.5534 17.628 57.1754 18.824 55.1994 18.824Z" fill="white"/>
</svg>
